<?xml version="1.0" encoding="UTF-8"?>
<svg width="40px" height="40px" viewBox="0 0 40 40" version="1.1" xmlns="http://www.w3.org/2000/svg" xmlns:xlink="http://www.w3.org/1999/xlink">
    <!-- Generator: Sketch 48.2 (47327) - http://www.bohemiancoding.com/sketch -->
    <title>Deliverables</title>
    <desc>Created with Sketch.</desc>
	<path d="M15.329328,22.6536318 L12.3759079,19.5733661 C12.3121887,19.5790233 12.2476736,19.5819124 12.1824838,19.5819124 C10.9900508,19.5819124 10.0233929,18.6152544 10.0233929,17.4228215 C10.0233929,16.2303885 10.9900508,15.2637305 12.1824838,15.2637305 C12.3252633,15.2637305 12.4648059,15.2775897 12.5998397,15.3040362 L15.39504,12.3504618 C15.2730819,12.0799845 15.2052111,11.7798713 15.2052111,11.463906 C15.2052111,11.0978048 15.2963297,10.7529854 15.4571257,10.4508892 L12.8826883,7.74920094 C12.6631127,7.82443821 12.427567,7.86527317 12.1824838,7.86527317 C10.9900508,7.86527317 10.0233929,6.89861524 10.0233929,5.70618226 C10.0233929,4.51374928 10.9900508,3.54709135 12.1824838,3.54709135 C13.3749168,3.54709135 14.3415747,4.51374928 14.3415747,5.70618226 C14.3415747,5.90889288 14.3136391,6.10507879 14.2614077,6.2911002 L17.1437752,9.31593916 C17.2162838,9.30858325 17.2898529,9.30481514 17.364302,9.30481514 C18.5567349,9.30481514 19.5233929,10.2714731 19.5233929,11.463906 C19.5233929,12.656339 18.5567349,13.622997 17.364302,13.622997 C17.233803,13.622997 17.1060081,13.6114193 16.9818884,13.5892352 L14.1648384,16.5658971 C14.2785514,16.8285962 14.3415747,17.1183489 14.3415747,17.4228215 C14.3415747,17.7965372 14.2466263,18.1480765 14.0795367,18.4546323 L16.8002647,21.2922121 C16.9800658,21.2436826 17.1691606,21.2177943 17.364302,21.2177943 C18.5567349,21.2177943 19.5233929,22.1844522 19.5233929,23.3768852 C19.5233929,24.5693182 18.5567349,25.5359761 17.364302,25.5359761 C16.171869,25.5359761 15.2052111,24.5693182 15.2052111,23.3768852 C15.2052111,23.1232045 15.2489612,22.8797421 15.329328,22.6536318 Z" ></path>
	<path d="M26.6291562,14.2988544 L15.7291562,39.5088544 L15.5091562,39.9988544 L18.2391562,39.9988544 L19.4991562,36.9988544 L27.7491562,32.8888544 L36.2591562,37.1288544 L37.5291562,39.9988544 L39.9891562,39.9988544 L28.8691562,14.2988544 L26.6291562,14.2988544 Z M25.2291562,23.2388544 L26.0091562,23.8888544 L24.3491562,25.2688544 L25.2291562,23.2388544 Z M20.8191562,33.7688544 L22.3191562,30.1288544 L25.2191562,31.5688544 L20.8191562,33.7688544 Z M34.8691562,33.8488544 L30.2891562,31.5688544 L33.2391562,30.0988544 L34.8691562,33.8488544 Z M27.7491562,30.3088544 L24.0591562,28.4688544 L27.7691562,25.3688544 L31.4591562,28.4588544 L27.7491562,30.3088544 Z M30.2791562,23.3088544 L31.1391562,25.3088544 L29.5291562,23.9588544 L30.2791562,23.3088544 Z M27.7691562,22.4588544 L26.1691562,21.1188544 L27.7491562,17.4588544 L29.3391562,21.1388544 L27.7691562,22.4588544 Z"  fill-rule="nonzero"></path>
	<polygon  fill-rule="nonzero" points="28.97 12.36 28.97 0 0 0 0 28.97 18.24 28.97 19.32 26.47 2.5 26.47 2.5 2.5 26.47 2.5 26.47 12.36"></polygon>

</svg>