<svg 
    xmlns="http://www.w3.org/2000/svg" viewBox="0 0 40 40">
    <defs>
        <style>.a{fill:#231f20;}</style>
    </defs>
    <title>drilling-interpretation</title>
    <path class="a" d="M26.64,14.3,15.74,39.51l-.22.49h2.73l1.26-3,8.25-4.11,8.51,4.24L37.54,40H40L28.88,14.3Zm-1.4,8.94.78.65-1.66,1.38ZM20.83,33.77l1.5-3.64,2.9,1.44Zm14.05.08L30.3,31.57l2.95-1.47Zm-7.12-3.54-3.69-1.84,3.71-3.1,3.69,3.09Zm2.53-7,.86,2-1.61-1.35Zm-2.51-.85-1.6-1.34,1.58-3.66,1.59,3.68Z"/>
    <rect class="a" x="5.59" y="17.16" width="2.5" height="5.42"/>
    <rect class="a" x="10.44" y="11.73" width="2.5" height="10.85"/>
    <rect class="a" x="14.66" y="8.72" width="2.5" height="13.86"/>
    <rect class="a" x="19.48" y="6.92" width="2.5" height="15.67"/>
    <polygon class="a" points="28.97 12.36 28.97 0 0 0 0 28.97 18.24 28.97 19.32 26.47 2.5 26.47 2.5 2.5 26.47 2.5 26.47 12.36 28.97 12.36"/>
</svg>