<svg xmlns="http://www.w3.org/2000/svg" viewBox="0 0 40 40"><title>IconsCall copy</title><path d="M33.13,36.44H1.9V8.53H33.13v1.53H35V1.66H0V38.34H35V30.77h-1.9Zm0-32.88V6.63H1.9V3.56Z"/><rect x="3.44" y="4.14" width="1.66" height="1.9"/><rect x="6.75" y="4.14" width="1.66" height="1.9"/><rect x="10.06" y="4.14" width="1.66" height="1.9"/><path d="M35.74,10.77h-19A4.27,4.27,0,0,0,12.42,15V25.8a4.27,4.27,0,0,0,4.14,4.26v2.85a1.78,1.78,0,0,0,3,1.26l4.1-4.1h12A4.27,4.27,0,0,0,40,25.8V15A4.27,4.27,0,0,0,35.74,10.77Zm2.36,15a2.36,2.36,0,0,1-2.36,2.36H23.31a1,1,0,0,0-.67.28l-4.17,4.17v-3.5a1,1,0,0,0-1-1h-.83a2.36,2.36,0,0,1-2.36-2.36V15a2.36,2.36,0,0,1,2.36-2.36h19A2.36,2.36,0,0,1,38.1,15Z"/><path d="M32.45,17.91,29,17.58l-1.49-3.29a1,1,0,0,0-1.74,0l-1.49,3.29-3.47.32a1,1,0,0,0-.59,1.61l2.62,2.69-.68,3.46a1,1,0,0,0,1.37,1l3.12-1.58,3.12,1.54a1,1,0,0,0,1.36-1l-.67-3.4L33,19.52a1,1,0,0,0-.59-1.61Zm-3.74,3.34a1,1,0,0,0-.25.85l.4,2L27,23.2a1,1,0,0,0-.85,0l-1.81.92.4-2a1,1,0,0,0-.25-.85L23,19.62l2-.19a1,1,0,0,0,.78-.56L26.63,17l.85,1.88a1,1,0,0,0,.78.56l2,.19Z"/></svg>