<svg xmlns="http://www.w3.org/2000/svg" viewBox="0 0 40 40"><defs><style>.a{fill:#231f20;}</style></defs><title>filters</title><path class="a" d="M18.27,30.56a4.46,4.46,0,0,0-3.08,3.08H0v2.5H15.18a4.47,4.47,0,0,0,8.6,0H40v-2.5H23.79A4.48,4.48,0,0,0,18.27,30.56Zm1.21,6.33a2,2,0,1,1,2-2A2,2,0,0,1,19.48,36.89Z"/><path class="a" d="M8.71,15.67a4.46,4.46,0,0,0-3.08,3.08H0v2.5H5.63a4.47,4.47,0,0,0,8.6,0H40v-2.5H14.23A4.48,4.48,0,0,0,8.71,15.67ZM9.93,22a2,2,0,1,1,2-2A2,2,0,0,1,9.93,22Z"/><path class="a" d="M27.76.78a4.46,4.46,0,0,0-3.08,3.08H0v2.5H24.68a4.47,4.47,0,0,0,8.6,0H40V3.86H33.28A4.48,4.48,0,0,0,27.76.78ZM29,7.11a2,2,0,1,1,2-2A2,2,0,0,1,29,7.11Z"/></svg>