<svg 
    xmlns="http://www.w3.org/2000/svg" viewBox="0 0 40 40">
    <defs>
        <style>.a{fill:#009fc2;}</style>
    </defs>
    <title>remote-operations</title>
    <path class="a" d="M29.62,0H27.77L17.46,23.83l-.07.17h2.12l1.17-2.84,8-4L37,21.28,38.12,24H40L29.65.07Zm-3.4,7.93,1.15,1L24.91,11Zm-4.54,10.8,1.74-4.19,3.34,1.66Zm14.2.09L30.63,16.2,34,14.51Zm-7.19-3.58L24.8,13.3,28.71,10l3.89,3.27Zm3.78-4.31-2.42-2,1.13-1ZM28.71,7.78l-1.78-1.5L28.69,2.2l1.78,4.1Z"/>
    <path class="a" d="M0,40H2.23l1.24-3,8.42-4.2,8.69,4.33L21.81,40h2L12.9,14.83l0-.08H10.92L.08,39.83Zm19.46-5.45L13.93,31.8,17.5,30Zm-3.59-8.3-2.55-2.14,1.19-1Zm-4-9.18,1.87,4.31-1.85,1.55L10,21.36Zm-2.6,6,1.21,1L7.91,26.28Zm2.62,2.2L16,28.73l-4.12,2.05-4.1-2ZM6.34,30,9.86,31.8,4.52,34.46Z"/>
    <path class="a" d="M9.17,13.35a4,4,0,0,1,5.44,0l1.58-1.59a5.81,5.81,0,0,0-4-1.7A6.6,6.6,0,0,0,7.6,11.77Z"/>
    <path class="a" d="M19.76,8.19A11.52,11.52,0,0,0,4,8.2L5.6,9.77a9.23,9.23,0,0,1,12.58,0Z"/>
    <path class="a" d="M23.42,4.62a16.68,16.68,0,0,0-23,0L1.94,6.2a14.29,14.29,0,0,1,19.9,0Z"/>
</svg>