<svg id="Layer_1" data-name="Layer 1" xmlns="http://www.w3.org/2000/svg" viewBox="0 0 40 40">
  <title>Icons_Remote Operations</title>
  <path d="M13.34,9.2v0l0-.06a.83.83,0,0,0-.13-.19.92.92,0,0,0-1.45,0,.83.83,0,0,0-.12.18l0,.07v0L.31,38.45a1,1,0,0,0,1.28,1.22,1,1,0,0,0,.51-.53L4,34.21h7.49v4.58a1,1,0,1,0,1.91,0V34.21h7.5l1.89,4.93a1,1,0,0,0,.89.61.93.93,0,0,0,.34-.06,1,1,0,0,0,.55-1.24ZM13.4,26V21.43H16L17.74,26Zm0-6.47V14.7l1.85,4.82Zm-1.91,0H9.64l1.85-4.81Zm0,1.91V26H7.15L8.9,21.43ZM6.42,27.9h5.07v4.4H4.73Zm7,0h5.07l1.69,4.4H13.4Z"/>
  <path d="M15.4,10.72h1.47A5.49,5.49,0,0,0,11.46,5.3V6.77a4,4,0,0,1,3.94,3.95Z"/>
  <path d="M18.26,10.72h1.47a8.36,8.36,0,0,0-8.27-8.28V3.9A6.89,6.89,0,0,1,18.26,10.72Z"/>
  <path d="M39.47,14.46,34.22.81h0a.48.48,0,0,0-.9,0h0L28.07,14.46a.49.49,0,1,0,.91.35l.87-2.27h3.43v2.1a.49.49,0,0,0,1,0v-2.1h3.43l.87,2.27a.49.49,0,0,0,.46.31.5.5,0,0,0,.18,0A.49.49,0,0,0,39.47,14.46ZM32.14,6.58h1.14v2H31.36Zm2.11-3,.76,2h-.76Zm-1,2h-.76l.76-2Zm1,1h1.14l.78,2H34.25Zm-4,5,.76-2h2.3v2Zm4,0v-2h2.3l.76,2Z"/>
</svg>