<svg xmlns="http://www.w3.org/2000/svg" width="40" height="40" viewBox="0 0 40 40">
  <g transform="translate(2)">
    <path d="M18 2.5C20.9373025 2.49595412 23.5876295 4.26222886 24.714491 6.97478219 25.8413526 9.68733551 25.2226886 12.8116297 23.147132 14.8900492 21.0715754 16.9684686 17.9481369 17.5914384 15.2340329 16.4683168 12.519929 15.3451952 10.7500028 12.6973053 10.75 9.76 10.7554916 5.75659098 13.9966024 2.51100975 18 2.5zM18-4.4408921e-16C12.6097008-7.7414915e-16 8.24 4.36970084 8.24 9.76 8.24 15.1502992 12.6097008 19.52 18 19.52 23.3902992 19.52 27.76 15.1502992 27.76 9.76 27.7626571 7.17067341 26.7352276 4.6866351 24.9042963 2.85570375 23.0733649 1.0247724 20.5893266-.00265708428 18-4.4408921e-16zM27.1199366 22.7938999L25.2547758 24.6590608C24.6282754 24.3900526 23.9814499 24.1696333 23.32 24 22.8029324 23.8646165 22.2788067 23.7577884 21.75 23.68L21.6 23.68C21.0396283 23.6056979 20.4752483 23.5656236 19.91 23.56L16.09 23.56C15.5313709 23.5650187 14.9736075 23.6050975 14.42 23.68L14.26 23.68C13.7277206 23.7567879 13.2002112 23.8636253 12.68 24 11.677828 24.2723769 10.7111832 24.66172 9.8 25.16L9.69 25.22C9.22183341 25.4788784 8.76785136 25.7626172 8.33 26.07L8.28 26.07 8.15 26.17C7.75198169 26.460818 7.37133048 26.7746883 7.01 27.11L6.9 27.21 6.8 27.3C5.97805016 28.0386176 5.24932839 28.8748007 4.63 29.79 4.57 29.9 4.5 30.01 4.43 30.12 4.19 30.53 3.98 30.94 3.78 31.36L3.69 31.56 3.69 31.62C3.473364 32.1185261 3.28637153 32.6294163 3.13 33.15L3.13 33.29 3.07 33.51C2.96 33.93 2.86 34.37 2.79 34.81L2.79 34.88 2.73 35.28C2.65510847 35.8470137 2.61503337 36.4180839 2.61 36.99L2.61 39.99.11 39.99.11 36.99C.116928542 36.3211455.16367794 35.653297.25 34.99.27 34.8.33 34.62.33 34.44.42 33.9.53 33.4.66 32.9.7 32.76.77 32.61.77 32.47.955800679 31.846906 1.17955207 31.2357641 1.44 30.64 1.48 30.54 1.58 30.44 1.58 30.34 1.81412934 29.8399478 2.07449158 29.3526031 2.36 28.88 2.43 28.75 2.51 28.61 2.59 28.49 3.29533232 27.3956001 4.12779679 26.3885866 5.07 25.49L5.32 25.26C5.74666667 24.8733333 6.19666667 24.5033333 6.67 24.15L6.89 24C7.44564746 23.5931439 8.02684282 23.2223814 8.63 22.89 9.71566241 22.3204243 10.8631925 21.8775179 12.05 21.57 12.6624133 21.4111949 13.2834339 21.2876586 13.91 21.2L14.11 21.2C14.57 21.14 15.08 21.08 15.57 21.08L19.94 21.08C20.6089187 21.0853038 21.2768658 21.1320601 21.94 21.22L22.14 21.22C22.7665661 21.3076586 23.3875867 21.4311949 24 21.59 25.0794359 21.8812872 26.1251056 22.2848435 27.1199361 22.7939004zM34.5536473 30.9165384C34.7660941 31.4276181 34.951803 31.9494768 35.11 32.48 35.15 32.62 35.22 32.77 35.22 32.91 35.35 33.45 35.46 33.93 35.55 34.45 35.63 34.63 35.63 34.81 35.63 35 35.7163221 35.663297 35.7630715 36.3311455 35.77 37L35.77 39.96 33.27 39.96 33.27 36.96C33.2647337 36.3914153 33.2246587 35.8236864 33.15 35.26L33.09 34.86 33.09 34.79C33.02 34.35 32.92 33.91 32.81 33.49L32.75 33.27 32.75 33.13C32.7184963 33.0256754 32.6858429 32.9217156 32.6520466 32.8181392L34.5536474 30.9165383zM17.689008 34.8659829L17.689008 39.9459829 22.769008 39.9459829 37.689008 25.0259829 32.609008 19.9459829 17.689008 34.8659829zM22.6532147 37.7757713L22.6022773 37.7757713 19.8431687 35.0166627 19.8431687 34.9487462 29.0331227 25.7757713 31.8431687 28.5858173 22.6532147 37.7757713zM33.5287515 26.8295563L30.7007894 24.0015942 32.3770928 22.3295563 35.2007894 25.1532529 33.5287515 26.8295563z"/>
  </g>
</svg>
